HIERARCHY
ROOT Hips
{
 OFFSET 0.000000 0.000000 0.000000
 CHANNELS 6 Xposition Yposition Zposition Yrotation Xrotation Zrotation
 JOINT Chest
 {
  OFFSET 0.000000 9.585900 0.002600
  CHANNELS 3 Yrotation Xrotation Zrotation
  JOINT Chest2
  {
   OFFSET 0.000000 9.601200 -0.005300
   CHANNELS 3 Yrotation Xrotation Zrotation
   JOINT Chest3
   {
    OFFSET 0.000000 9.561800 0.000000
    CHANNELS 3 Yrotation Xrotation Zrotation
    JOINT Chest4
    {
     OFFSET 0.000000 9.552100 0.000000
     CHANNELS 3 Yrotation Xrotation Zrotation
     JOINT Neck
     {
      OFFSET 0.000000 14.453000 0.000000
      CHANNELS 3 Yrotation Xrotation Zrotation
      JOINT Head
      {
       OFFSET 0.000000 8.936500 -0.011300
       CHANNELS 3 Yrotation Xrotation Zrotation
       End Site
       {
        OFFSET 0.000000 17.073600 -0.006000
       }
      }
     }
     JOINT RightCollar
     {
      OFFSET -2.921100 9.558500 0.000000
      CHANNELS 3 Yrotation Xrotation Zrotation
      JOINT RightShoulder
      {
       OFFSET -13.519700 0.000000 0.000000
       CHANNELS 3 Yrotation Xrotation Zrotation
       JOINT RightElbow
       {
        OFFSET 0.000000 -29.696600 0.000000
        CHANNELS 3 Yrotation Xrotation Zrotation
        JOINT RightWrist
        {
         OFFSET 0.000000 -24.004700 0.000000
         CHANNELS 3 Yrotation Xrotation Zrotation
         End Site
         {
          OFFSET 0.000000 -17.728500 0.000000
         }
        }
       }
      }
     }
     JOINT LeftCollar
     {
      OFFSET 2.921100 9.558500 0.000000
      CHANNELS 3 Yrotation Xrotation Zrotation
      JOINT LeftShoulder
      {
       OFFSET 13.519700 0.000000 0.000000
       CHANNELS 3 Yrotation Xrotation Zrotation
       JOINT LeftElbow
       {
        OFFSET 0.000000 -29.696600 0.000000
        CHANNELS 3 Yrotation Xrotation Zrotation
        JOINT LeftWrist
        {
         OFFSET 0.000000 -24.004700 0.000000
         CHANNELS 3 Yrotation Xrotation Zrotation
         End Site
         {
          OFFSET 0.000000 -17.728500 0.000000
         }
        }
       }
      }
     }
    }
   }
  }
 }
 JOINT RightHip
 {
  OFFSET -7.771700 -0.012900 -0.001300
  CHANNELS 3 Yrotation Xrotation Zrotation
  JOINT RightKnee
  {
   OFFSET 0.000000 -40.869800 0.001200
   CHANNELS 3 Yrotation Xrotation Zrotation
   JOINT RightAnkle
   {
    OFFSET 0.000000 -39.717900 0.002100
    CHANNELS 3 Yrotation Xrotation Zrotation
    JOINT RightToe
    {
     OFFSET 0.000000 -4.965400 11.033500
     CHANNELS 3 Yrotation Xrotation Zrotation
     End Site
     {
      OFFSET 0.000000 -1.423100 5.872300
     }
    }
   }
  }
 }
 JOINT LeftHip
 {
  OFFSET 7.771700 -0.012900 -0.001300
  CHANNELS 3 Yrotation Xrotation Zrotation
  JOINT LeftKnee
  {
   OFFSET 0.000000 -40.869800 0.001200
   CHANNELS 3 Yrotation Xrotation Zrotation
   JOINT LeftAnkle
   {
    OFFSET 0.000000 -39.717900 0.002100
    CHANNELS 3 Yrotation Xrotation Zrotation
    JOINT LeftToe
    {
     OFFSET 0.000000 -4.965400 11.033500
     CHANNELS 3 Yrotation Xrotation Zrotation
     End Site
     {
      OFFSET 0.000000 -1.423100 5.872300
     }
    }
   }
  }
 }
}
MOTION
Frames: 8
Frame Time: 0.008333
0.000000 85.388000 0.000000 0.000000 -5.767877 0.000000 0.000000 11.653817 0.000000 0.000000 -5.885947 0.000000 0.000000 -0.000000 0.000000 0.000000 -0.000000 0.000000 0.000000 12.528835 0.000000 0.000000 0.711642 0.000000 0.000000 -0.000000 0.000000 0.000000 0.000000 -90.000000 0.000000 -2.309062 0.000000 0.000000 2.309062 0.000000 0.000000 -0.000000 0.000000 0.000000 -0.000000 90.000000 0.000000 -2.309062 0.000000 0.000000 2.309062 0.000000 0.000000 8.520406 0.000000 0.000000 1.905762 0.000000 -0.000000 -4.658285 0.000000 0.000000 -0.000000 0.000000 0.000000 8.520406 0.000000 0.000000 1.905762 0.000000 -0.000000 -4.658285 0.000000 0.000000 -0.000000 0.000000
-90.866190 57.006461 1.668527 163.327478 -12.960958 -0.038622 2.833488 12.737160 1.185836 0.232775 1.051975 0.035961 0.412507 1.789135 0.054647 2.744540 11.768609 0.624873 -1.078946 17.106460 -1.634519 -1.436574 -4.031711 -2.653073 2.940170 5.252642 -2.786604 -5.808369 -21.045297 -10.964123 -144.630801 -67.798501 164.582154 -7.787314 -4.405359 -33.560450 -6.857330 5.245772 2.402342 14.176584 -18.230348 -0.224119 123.207276 -61.224335 -154.593930 2.202152 -1.449667 8.174532 3.722919 -59.608830 -0.186322 -40.224785 69.227834 -47.058793 -8.458782 -3.493397 6.159776 -0.896326 0.535289 -0.465677 -6.083716 -61.569187 16.489995 51.579733 62.083754 45.966696 -18.610214 -5.239814 -0.179586 0.615618 -0.648581 0.312391
-90.868217 57.013940 1.663610 163.387003 -12.882560 -0.021787 2.793699 12.671274 1.143243 0.234826 1.038012 0.031136 0.393899 1.779504 0.064530 2.720520 11.683254 0.596599 -0.805232 17.028213 -1.630447 -0.930880 -4.173150 -2.739318 3.004425 5.213045 -2.704545 -5.426735 -21.014523 -11.069142 -140.625684 -68.819341 160.434806 -8.096094 -4.063245 -33.667427 -6.874789 5.137374 2.325561 13.606604 -18.217691 0.046387 121.739395 -61.799817 -153.084264 2.358130 -1.552010 8.374323 3.625245 -59.679763 -0.228224 -40.202232 69.244987 -47.027410 -8.409380 -3.524837 6.132738 -0.884810 0.536725 -0.457235 -6.050277 -61.642370 16.418680 51.541872 62.077051 45.912847 -18.607981 -5.230585 -0.155004 0.583377 -0.650967 0.301728
-90.869284 57.022555 1.657379 163.433598 -12.796262 -0.002634 2.762818 12.593318 1.101069 0.226779 1.025497 0.032544 0.387830 1.771155 0.066211 2.706351 11.645905 0.587928 -0.551111 16.890116 -1.644739 -0.434069 -4.325752 -2.827173 3.056763 5.122112 -2.642787 -5.057594 -20.998459 -11.208211 -136.085621 -69.637495 155.805930 -8.437133 -3.714326 -33.808319 -6.914497 4.974974 2.232124 13.048477 -18.233110 0.341646 120.077835 -62.331888 -151.431800 2.516229 -1.613880 8.556974 3.545329 -59.759476 -0.273862 -40.178938 69.260396 -46.992442 -8.362192 -3.542790 6.101905 -0.872721 0.531014 -0.443941 -5.995699 -61.726602 16.347160 51.503577 62.081930 45.856854 -18.599110 -5.219058 -0.119190 0.541628 -0.660848 0.285865
-90.858618 57.032435 1.650109 163.466983 -12.723103 -0.043953 2.757317 12.523113 1.125734 0.211171 1.018355 0.039910 0.402100 1.704663 0.037934 2.672642 11.576342 0.578844 -0.283219 16.825877 -1.634628 0.050227 -4.488746 -2.915170 3.125805 5.113165 -2.555101 -4.723378 -20.996797 -11.378226 -131.165194 -70.199773 150.867397 -8.795937 -3.349392 -34.003820 -6.955402 4.898789 2.143599 12.509945 -18.283137 0.665243 118.236894 -62.813541 -149.648544 2.665172 -1.626138 8.711743 3.417333 -59.831504 -0.208276 -40.226149 69.259096 -47.008232 -8.344734 -3.518571 6.075141 -0.845366 0.493986 -0.431311 -5.954896 -61.787606 16.372253 51.337674 62.117755 45.715432 -18.650819 -5.250295 -0.122158 0.587329 -0.630747 0.306186
-90.849922 57.041991 1.642644 163.503660 -12.637841 -0.073473 2.746222 12.439418 1.137942 0.207085 1.006439 0.037970 0.397169 1.674287 0.036023 2.648902 11.468092 0.552879 -0.023763 16.757938 -1.625739 0.518649 -4.659274 -3.002667 3.193251 5.107850 -2.471355 -4.437690 -21.002964 -11.572300 -126.067215 -70.491775 145.823453 -9.143953 -2.983194 -34.243297 -7.018133 4.839546 2.048222 12.006931 -18.378795 1.014201 116.262568 -63.251331 -147.771772 2.791676 -1.601735 8.827150 3.309829 -59.916571 -0.168205 -40.259112 69.259092 -47.008402 -8.366696 -3.466832 6.064811 -0.800890 0.442855 -0.435564 -5.970614 -61.864626 16.414764 51.253390 62.142497 45.630257 -18.659231 -5.255150 -0.111374 0.589088 -0.627480 0.307089
-90.850571 57.050637 1.633458 163.517888 -12.539549 -0.042336 2.747460 12.344298 1.093507 0.198948 0.990169 0.036153 0.397554 1.646045 0.034189 2.636996 11.380708 0.537714 0.218743 16.658775 -1.626069 0.970289 -4.836928 -3.089115 3.247457 5.075309 -2.402836 -4.202548 -21.009484 -11.781011 -121.063592 -70.538283 140.936069 -9.470532 -2.648747 -34.505963 -7.107246 4.766109 1.944891 11.550395 -18.519550 1.388594 114.240609 -63.651926 -145.880132 2.887219 -1.548615 8.906334 3.297703 -60.013519 -0.242641 -40.207808 69.278994 -46.926871 -8.392333 -3.420753 6.031990 -0.752320 0.393731 -0.436798 -5.864468 -61.958467 16.350758 51.221187 62.179161 45.540978 -18.625914 -5.259976 -0.025739 0.519368 -0.632971 0.278360
-90.849858 57.057854 1.626872 163.524083 -12.423470 -0.024304 2.755174 12.230177 1.064861 0.201732 0.974287 0.032664 0.395447 1.617594 0.031956 2.627563 11.288758 0.525079 0.452375 16.554638 -1.627545 1.406572 -5.023360 -3.175416 3.296724 5.034528 -2.341546 -4.022403 -21.007792 -11.996789 -116.456129 -70.382589 136.496681 -9.776875 -2.355004 -34.779962 -7.211519 4.689197 1.836488 11.135811 -18.688241 1.791516 112.287943 -64.018803 -144.069210 2.949144 -1.469957 8.952457 3.246051 -60.131845 -0.277456 -40.084494 69.315452 -46.807125 -8.360383 -3.350660 6.025676 -0.777328 0.322962 -0.450021 -5.783326 -62.066537 16.321087 51.131840 62.212839 45.439546 -18.646697 -5.266015 -0.005887 0.542524 -0.629851 0.279138
